<?xml version="1.0" encoding="UTF-8"?>
<svg version="1.1" xmlns="http://www.w3.org/2000/svg" width="512" height="512">
  <path d="M0 0 C1.50880737 0.01135986 1.50880737 0.01135986 3.0480957 0.02294922 C10.90250288 0.19657629 17.38372097 1.23577745 24.625 4.4375 C26.12160156 5.07365234 26.12160156 5.07365234 27.6484375 5.72265625 C61.04674127 21.13395581 79.9383543 56.07552652 95.625 87.4375 C96.01751953 88.20932617 96.41003906 88.98115234 96.81445312 89.77636719 C106.83267631 109.53894679 114.78038038 130.6108252 121.9375 151.5625 C122.22125488 152.3776709 122.50500977 153.1928418 122.79736328 154.03271484 C125.03363007 160.82267589 125.17572755 166.45379452 123.125 173.375 C122.8465625 174.33277344 122.568125 175.29054687 122.28125 176.27734375 C122.0646875 176.99019531 121.848125 177.70304688 121.625 178.4375 C131.05079062 187.19825699 131.05079062 187.19825699 140.67578125 195.73828125 C145.57848303 200.0121796 150.37612166 204.40669471 155.203125 208.765625 C158.94627609 212.14135022 162.69296472 215.50887435 166.5 218.8125 C184.46904064 234.52631691 194.32113199 247.60671093 201.73828125 270.4375 C202.31671125 272.19958037 202.89575937 273.96145794 203.47538757 275.72314453 C204.6877569 279.41319303 205.89510209 283.10483147 207.09838867 286.79785156 C208.61432982 291.45029206 210.13886438 296.09985297 211.66670418 300.74839783 C217.02317307 317.04844697 222.35615622 333.35561837 227.41796875 349.75 C227.89898796 351.30533447 227.89898796 351.30533447 228.38972473 352.89208984 C233.5110741 369.66925584 232.81303547 384.27696783 225 400.125 C217.41357708 412.96070822 206.33604805 418.90799801 193.60546875 425.80517578 C190.45493201 427.53064176 187.33501219 429.3032684 184.21875 431.08984375 C183.17033936 431.69014404 182.12192871 432.29044434 181.04174805 432.90893555 C178.99824222 434.07975269 176.95541744 435.25175943 174.91333008 436.42504883 C173.52730591 437.21238403 173.52730591 437.21238403 172.11328125 438.015625 C171.29384033 438.48387695 170.47439941 438.95212891 169.63012695 439.43457031 C167.625 440.4375 167.625 440.4375 165.625 440.4375 C165.64594727 441.47044189 165.66689453 442.50338379 165.68847656 443.56762695 C165.76161829 447.44964387 165.8070652 451.33160168 165.84472656 455.21411133 C165.864675 456.88511442 165.89184401 458.55604924 165.92675781 460.22680664 C166.25792664 476.4979104 163.21898598 489.31651465 151.625 501.4375 C143.93938815 507.44188426 134.92252734 512.54967113 124.9780798 512.57172108 C124.04334927 512.57617892 123.10861875 512.58063676 122.14556307 512.58522969 C120.61013388 512.58495315 120.61013388 512.58495315 119.04368591 512.58467102 C117.95363741 512.58834771 116.8635889 512.5920244 115.74050862 512.5958125 C112.07496651 512.60685667 108.40945275 512.61069445 104.74389648 512.61450195 C102.12079274 512.62076608 99.49768989 512.62741284 96.87458801 512.63441467 C88.99330493 512.65416551 81.11202058 512.66424404 73.23071894 512.67314246 C69.51682409 512.67752807 65.80293067 512.68289421 62.08903694 512.68813133 C49.73863617 512.70514306 37.38823627 512.71963607 25.03782558 512.72688007 C21.83372941 512.72878989 18.62963325 512.73071023 15.42553711 512.73266602 C14.2310311 512.73339163 14.2310311 512.73339163 13.01239366 512.7341319 C0.11931441 512.74242785 -12.77367192 512.76775765 -25.66671062 512.80024669 C-38.91176758 512.83334989 -52.15677738 512.85133182 -65.40187591 512.85452431 C-72.83521692 512.85668651 -80.26842248 512.86539241 -87.7017231 512.89098549 C-94.03387437 512.91273721 -100.36585729 512.92072108 -106.69804168 512.91101871 C-109.92583228 512.90648667 -113.15320487 512.91049648 -116.38096237 512.92778015 C-119.88919887 512.94551083 -123.39656271 512.93838598 -126.90480042 512.92524719 C-127.91280482 512.93621644 -128.92080923 512.94718568 -129.95935923 512.95848733 C-142.81381107 512.84274291 -154.15607521 507.25560198 -163.375 498.4375 C-170.63480789 489.1449459 -174.55185876 479.93897196 -174.47265625 468.171875 C-174.4712413 467.37847717 -174.46982635 466.58507935 -174.46836853 465.76763916 C-174.46278415 463.24088728 -174.45023454 460.71422496 -174.4375 458.1875 C-174.43248298 456.47135545 -174.42792043 454.75520951 -174.42382812 453.0390625 C-174.41281984 448.83850731 -174.39556596 444.63801883 -174.375 440.4375 C-175.09397461 440.16292969 -175.81294922 439.88835937 -176.55371094 439.60546875 C-179.31467679 438.46247285 -181.88734107 437.16964282 -184.515625 435.75 C-185.98588135 434.95686401 -185.98588135 434.95686401 -187.48583984 434.14770508 C-191.7750948 431.81093179 -196.06121624 429.4687993 -200.33886719 427.11083984 C-202.22242003 426.07273505 -204.10809617 425.03846087 -205.99707031 424.01025391 C-221.92246304 415.31093479 -232.51656394 405.78153893 -238.75 388.25 C-244.86374717 366.54362874 -234.74658797 345.08128203 -228 324.6875 C-226.3827718 319.78299417 -224.76764706 314.87779631 -223.15234375 309.97265625 C-222.54695518 308.1366259 -222.54695518 308.1366259 -221.92933655 306.26350403 C-219.33722078 298.39329463 -216.78128835 290.51230988 -214.25390625 282.62109375 C-213.62103122 280.65133498 -212.98805867 278.68160754 -212.35498047 276.71191406 C-211.46818738 273.95235438 -210.58378906 271.19217179 -209.70806885 268.42907715 C-202.22486757 244.82698206 -202.22486757 244.82698206 -195 237.25 C-194.22011719 236.425 -193.44023437 235.6 -192.63671875 234.75 C-191.89035156 233.986875 -191.14398438 233.22375 -190.375 232.4375 C-189.76269531 231.798125 -189.15039062 231.15875 -188.51953125 230.5 C-185.0428721 226.93582769 -181.37849903 223.637223 -177.609375 220.38671875 C-174.99648624 218.10729306 -172.43569979 215.77537647 -169.875 213.4375 C-166.11149479 210.00485239 -162.31370649 206.6219499 -158.46875 203.28125 C-155.91080973 201.02873543 -153.3932102 198.73432908 -150.875 196.4375 C-144.15071435 190.30762634 -137.29316679 184.34676747 -130.375 178.4375 C-130.5915625 177.72464844 -130.808125 177.01179687 -131.03125 176.27734375 C-131.3096875 175.31957031 -131.588125 174.36179688 -131.875 173.375 C-132.1534375 172.43527344 -132.431875 171.49554688 -132.71875 170.52734375 C-138.77313976 142.02125861 -101.22045487 86.79226235 -86.22021484 63.25488281 C-78.26285459 51.10511602 -69.51927999 39.82844941 -59.375 29.4375 C-58.16457031 28.13425781 -58.16457031 28.13425781 -56.9296875 26.8046875 C-42.00326941 11.1103508 -21.99583636 -0.23413664 0 0 Z M-73.875 168.0625 C-75.29147827 168.49598755 -75.29147827 168.49598755 -76.73657227 168.93823242 C-77.59694092 169.21900635 -78.45730957 169.49978027 -79.34375 169.7890625 C-80.10107422 170.03479004 -80.85839844 170.28051758 -81.63867188 170.53369141 C-83.73933515 171.37134492 -83.73933515 171.37134492 -84.375 174.4375 C-83.42489998 176.95733872 -82.40828747 179.30606463 -81.24609375 181.7265625 C-80.90521729 182.45410736 -80.56434082 183.18165222 -80.21313477 183.9312439 C-79.09116435 186.31401026 -77.95309343 188.68859743 -76.8125 191.0625 C-76.23485397 192.27534668 -76.23485397 192.27534668 -75.64553833 193.51269531 C-64.54462194 216.79840255 -52.28075972 239.04842919 -36.375 259.4375 C-35.78605957 260.46786377 -35.19711914 261.49822754 -34.59033203 262.55981445 C-32.65742369 264.84586785 -31.58110796 265.39475367 -28.60984802 266.01098633 C-24.97892504 266.25117252 -21.39280211 266.29494886 -17.75390625 266.26953125 C-16.40778232 266.27611941 -15.06166548 266.2843393 -13.71556091 266.29411316 C-10.89842795 266.30744738 -8.08243485 266.29866047 -5.26538086 266.2746582 C-1.66538536 266.24609004 1.93133339 266.27611352 5.53103542 266.32329273 C8.31002689 266.3525703 11.088243 266.34872986 13.86732674 266.33527184 C15.83596892 266.33208806 17.80458907 266.35801846 19.77305603 266.38447571 C26.09562401 266.43955082 26.09562401 266.43955082 31.70809937 263.96585083 C33.25508029 262.2003419 34.4535292 260.46719752 35.625 258.4375 C36.16092773 257.69918945 36.69685547 256.96087891 37.24902344 256.20019531 C37.86052246 255.24258301 37.86052246 255.24258301 38.484375 254.265625 C38.95496338 253.52940918 39.42555176 252.79319336 39.91040039 252.03466797 C40.39371826 251.26010254 40.87703613 250.48553711 41.375 249.6875 C41.89376709 248.85750488 42.41253418 248.02750977 42.94702148 247.17236328 C65.71321619 211.64402225 65.71321619 211.64402225 76.625 172.4375 C27.42515472 154.59682087 -23.7195063 152.53023698 -73.875 168.0625 Z M-111.375 219.4375 C-112.2928125 220.29472656 -113.210625 221.15195313 -114.15625 222.03515625 C-125.68513013 232.78412304 -125.68513013 232.78412304 -131.4609375 237.7734375 C-135.48328181 241.27041439 -139.41938979 244.86546411 -143.375 248.4375 C-145.08283099 249.97972314 -146.79115804 251.52139713 -148.5 253.0625 C-149.31855469 253.80113281 -150.13710937 254.53976563 -150.98046875 255.30078125 C-153.84385885 257.85587812 -156.75311359 260.35427663 -159.68359375 262.83203125 C-162.82767039 265.81636265 -164.69122619 268.75559888 -166.0222168 272.87158203 C-166.31125885 273.75275696 -166.6003009 274.63393188 -166.89810181 275.54180908 C-167.2037204 276.49996521 -167.50933899 277.45812134 -167.82421875 278.4453125 C-168.15432953 279.45922058 -168.48444031 280.47312866 -168.82455444 281.51776123 C-169.91161301 284.86355448 -170.98739828 288.21284724 -172.0625 291.5625 C-172.81323441 293.88573663 -173.56446135 296.20881415 -174.31616211 298.53173828 C-175.88089975 303.37195522 -177.44052229 308.21378421 -178.99707031 313.05664062 C-180.95142088 319.13216099 -182.92406922 325.20153299 -184.90415955 331.26870728 C-186.39835887 335.8507653 -187.88486541 340.43529392 -189.36953735 345.02044678 C-190.07921087 347.20805417 -190.79157635 349.39479017 -191.50668335 351.58062744 C-192.50373051 354.63183906 -193.48956279 357.6864563 -194.47265625 360.7421875 C-194.76868744 361.63991882 -195.06471863 362.53765015 -195.36972046 363.46258545 C-197.43840905 369.82415186 -197.43840905 369.82415186 -197.375 376.4375 C-194.82114369 380.58077685 -191.9072333 382.57210702 -187.6484375 384.8125 C-186.53339844 385.40546875 -185.41835937 385.9984375 -184.26953125 386.609375 C-183.10808594 387.21265625 -181.94664062 387.8159375 -180.75 388.4375 C-179.61175781 389.04078125 -178.47351563 389.6440625 -177.30078125 390.265625 C-172.28101987 392.91670449 -167.23744775 395.51196998 -162.15884399 398.04833984 C-161.26192652 398.49639984 -160.36500904 398.94445984 -159.44091225 399.40609741 C-158.75916121 399.74646027 -158.07741016 400.08682312 -157.375 400.4375 C-157.37261165 399.83673393 -157.37022329 399.23596786 -157.36776257 398.61699677 C-157.30854096 383.97659773 -157.23294521 369.33634596 -157.13928509 354.69612885 C-157.09438297 347.6161193 -157.05495558 340.53615943 -157.02856445 333.45605469 C-157.00307459 326.62191168 -156.96213236 319.78799944 -156.91181374 312.95399475 C-156.89514354 310.34817767 -156.88363023 307.74232227 -156.87738609 305.13645935 C-156.86774711 301.48331542 -156.83968837 297.83073845 -156.80737305 294.17773438 C-156.80880814 293.10310944 -156.81024323 292.0284845 -156.8117218 290.92129517 C-156.72658512 284.10482125 -156.23171674 277.87086258 -151.69140625 272.4140625 C-151.11261719 271.96804688 -150.53382813 271.52203125 -149.9375 271.0625 C-149.36128906 270.60101563 -148.78507812 270.13953125 -148.19140625 269.6640625 C-144.26304652 267.01136367 -141.46873514 266.1821071 -136.68847656 266.11865234 C-135.54759583 266.09878265 -134.40671509 266.07891296 -133.23126221 266.05844116 C-132.00510193 266.04688995 -130.77894165 266.03533875 -129.515625 266.0234375 C-128.25611023 266.00407135 -126.99659546 265.9847052 -125.69891357 265.9647522 C-122.3583905 265.91511586 -119.01797675 265.87383723 -115.67730713 265.83660889 C-112.26523952 265.79652661 -108.85333824 265.74545361 -105.44140625 265.6953125 C-98.75271119 265.59924963 -92.06394356 265.51420325 -85.375 265.4375 C-86.15676649 263.85610159 -86.94062476 262.27573716 -87.7253418 260.69580078 C-88.16162399 259.81562286 -88.59790619 258.93544495 -89.04740906 258.02859497 C-90.93045494 254.35340365 -93.04388991 250.83967795 -95.1875 247.3125 C-99.05571249 240.86717545 -102.56226244 234.32334262 -105.7746582 227.52685547 C-107.32131139 224.30393432 -108.76785042 221.86889182 -111.375 219.4375 Z M103.625 221.4375 C103.34414551 222.07026855 103.06329102 222.70303711 102.77392578 223.35498047 C97.49677439 235.19164175 92.13115461 246.85918757 85.62353516 258.07763672 C83.40693072 261.52970729 83.40693072 261.52970729 82.625 265.4375 C83.55675049 265.43963753 83.55675049 265.43963753 84.50732422 265.44181824 C90.99702604 265.46156867 97.48579404 265.51595701 103.97509766 265.59008789 C106.39397472 265.61322498 108.81295191 265.62765347 111.23193359 265.63305664 C114.71775403 265.64237702 118.20200877 265.68343905 121.6875 265.73046875 C122.76177246 265.7265361 123.83604492 265.72260345 124.94287109 265.71855164 C133.2004637 265.87750508 138.2390779 267.96247469 144 273.875 C148.07833456 280.30621988 147.92911311 286.57166207 147.94384766 293.95068359 C147.95389328 295.10248108 147.9639389 296.25427856 147.97428894 297.440979 C148.00512265 301.23929354 148.02215691 305.03753757 148.0390625 308.8359375 C148.05777396 311.47295742 148.07734735 314.10997136 148.0977478 316.74697876 C148.14446131 322.97287187 148.18124123 329.19878212 148.21442068 335.42476046 C148.2526947 342.5155099 148.30209095 349.60616836 148.35240483 356.696841 C148.45561411 371.27699057 148.54491016 385.85720534 148.625 400.4375 C151.16622106 399.17341843 153.70671724 397.90791445 156.24682617 396.64160156 C156.95925224 396.28740143 157.67167831 395.93320129 158.40569305 395.56826782 C164.3449428 392.60518948 170.17213424 389.4770219 175.9375 386.1875 C176.84177734 385.68476563 177.74605469 385.18203125 178.67773438 384.6640625 C179.54333984 384.17164063 180.40894531 383.67921875 181.30078125 383.171875 C182.06302002 382.74100586 182.82525879 382.31013672 183.6105957 381.86621094 C186.04619443 380.13876896 187.30138509 379.14951248 188.625 376.4375 C188.85494108 369.8416268 186.62861758 363.52717868 184.58984375 357.34375 C184.27946167 356.3787558 183.96907959 355.4137616 183.64929199 354.41952515 C182.62922489 351.25590125 181.59658646 348.09656686 180.5625 344.9375 C179.84400344 342.72818306 179.12599327 340.51870788 178.40844727 338.30908203 C177.29120473 334.87019233 176.17284961 331.43168892 175.05064392 327.99441528 C172.76791071 320.9948532 170.52755291 313.98361607 168.32688904 306.95782471 C166.92255025 302.47914307 165.50250864 298.00552215 164.08035278 293.5324707 C163.40647176 291.40065245 162.73927594 289.26670844 162.07907104 287.13061523 C161.1533886 284.14070477 160.20265478 281.15983865 159.24609375 278.1796875 C158.98300415 277.30782806 158.71991455 276.43596863 158.44885254 275.53768921 C155.61201136 266.87248108 149.89684683 261.34661776 143.1875 255.375 C141.76630859 254.10462891 141.76630859 254.10462891 140.31640625 252.80859375 C137.45818772 250.29054056 134.59420511 247.77959624 131.71875 245.28125 C129.16080973 243.02873543 126.6432102 240.73432908 124.125 238.4375 C119.26676034 234.01264918 119.26676034 234.01264918 114.375 229.625 C113.81296875 229.12355469 113.2509375 228.62210938 112.671875 228.10546875 C109.7589788 225.73179189 106.69667698 223.60163605 103.625 221.4375 Z M-18.1875 348 C-22.26213975 352.54031287 -25.55909564 358.23964447 -26 364.4375 C-25.56210459 370.27216049 -22.77941883 375.87795738 -18.80078125 380.11328125 C-13.90622602 383.98100672 -8.2855617 385.58406279 -2.08203125 385.3515625 C4.27267044 384.3671853 8.39839683 381.1613506 12.625 376.4375 C15.93166054 371.42417596 17.21848295 366.09941607 16.2578125 360.171875 C14.59962875 354.15328214 11.51803012 350.25406349 6.625 346.4375 C4.21000543 344.97085352 4.21000543 344.97085352 1.625 344.4375 C0.573125 344.169375 -0.47875 343.90125 -1.5625 343.625 C-7.67929705 343.32417392 -12.86313801 345.04202111 -18.1875 348 Z M-131.375 463.4375 C-131.375 465.0875 -131.375 466.7375 -131.375 468.4375 C-128.2791727 470.50138487 -127.64037177 470.68766853 -124.14112854 470.68918228 C-123.27312339 470.69439778 -122.40511824 470.69961327 -121.5108099 470.70498681 C-120.5566396 470.70052537 -119.60246931 470.69606392 -118.61938477 470.69146729 C-117.09963342 470.69614726 -117.09963342 470.69614726 -115.54918003 470.70092177 C-112.13819708 470.70892913 -108.72739068 470.70256744 -105.31640625 470.69628906 C-102.87751155 470.69899771 -100.43861767 470.70255792 -97.99972534 470.70690918 C-92.05342378 470.71510016 -86.10719207 470.71387639 -80.1608932 470.7080839 C-75.3292733 470.70357165 -70.49766755 470.70295261 -65.66604614 470.70513153 C-64.97902919 470.705438 -64.29201224 470.70574446 -63.5841766 470.70606022 C-62.18862239 470.70669965 -60.79306819 470.70734808 -59.39751399 470.7080054 C-46.30382465 470.71371185 -33.2101633 470.70714587 -20.11647856 470.69640467 C-8.87548992 470.68746886 2.36545742 470.68902082 13.60644531 470.69824219 C26.65249468 470.70893926 39.6985195 470.7131625 52.74457264 470.70701766 C54.1350638 470.70638055 55.52555497 470.7057518 56.91604614 470.70513153 C57.60023839 470.70482298 58.28443064 470.70451443 58.98935598 470.70419653 C63.81654888 470.7024679 68.64372625 470.70538831 73.47091675 470.71009064 C79.96496738 470.71627751 86.45895188 470.71188823 92.95299911 470.70030212 C95.34155014 470.69764939 97.73010771 470.69843101 100.11865616 470.70282745 C103.36898907 470.70826016 106.6190682 470.70147642 109.86938477 470.69146729 C111.30064021 470.69815945 111.30064021 470.69815945 112.7608099 470.70498681 C113.62881505 470.69977132 114.4968202 470.69455582 115.39112854 470.68918228 C116.51702817 470.68869522 116.51702817 470.68869522 117.66567326 470.68819833 C119.94714091 470.5438492 119.94714091 470.5438492 122.625 468.4375 C122.625 466.7875 122.625 465.1375 122.625 463.4375 C38.805 463.4375 -45.015 463.4375 -131.375 463.4375 Z " fill="#CBD0D5" transform="translate(260.375,-0.4375)"/>
</svg>
